<svg xmlns="http://www.w3.org/2000/svg" xmlns:xlink="http://www.w3.org/1999/xlink" viewBox="0 0 363.14 337.2">
    <defs>
        <style>.cls-1{fill:url(#linear-gradient);}</style>
        <linearGradient id="linear-gradient" x1="91.21" y1="66.83" x2="309.21" y2="319.83"
                        gradientUnits="userSpaceOnUse">
            <stop offset="0" stop-color="#fbb040"/>
            <stop offset="0.76" stop-color="#f9dd37"/>
            <stop offset="1" stop-color="#f9ed32"/>
        </linearGradient>
    </defs>
    <title>logo</title>
    <g id="Layer_2" data-name="Layer 2">
        <g id="Layer_1-2" data-name="Layer 1">
            <path class="cls-1"
                  d="M362.18,164.75l-40.25-.55A168.59,168.59,0,0,0,153.39,0q-4.9,0-9.75.29A168.59,168.59,0,0,1,302.42,163.93L164.13,162v-24.2a13.74,13.74,0,0,0-3.46-9.14,56.65,56.65,0,0,0-16.48-12.93,31.83,31.83,0,0,0-45.08,20.88,14.8,14.8,0,0,0,.7,10.42A4.86,4.86,0,0,0,104,150c4.66.35,10.23,5.35,14.89,11.43-1.17-.53-1.88-1.68-2.93-2.49-20.7-16.06-80.44-12.52-96.35-11.26a24.9,24.9,0,0,0-11,3.43C.78,155.84.14,162,.14,162c-1.59,12,11.08,23.58,18.67,29.21A52.78,52.78,0,0,0,26,195.68a91.13,91.13,0,0,1,27.42,21.24c8.67,10,17.8,24.87,21.52,37.6,14.54,49.8,41.4,70,56.89,77.83a44.59,44.59,0,0,0,20.48,4.83h.09l1,0a168.1,168.1,0,0,0,66.15-13.48l.1,0h0a168.91,168.91,0,0,0,98.29-118.15l.12-.08a21.62,21.62,0,0,0,9.52-18V176.77a6.86,6.86,0,0,0-5.45-6.77l-.13,0c0-.46,0-.91,0-1.37s0-.65,0-1l40.21-.93a1,1,0,0,0,0-1.94ZM233.65,304.51c-15.16,11.15-35,14.16-52.5,7.22-22.69-9-30.66-26.31-29.31-44.8a58.86,58.86,0,0,1,41.54-49.53c43.41-13,105.1-12.8,105.25-12.8A168.63,168.63,0,0,1,233.65,304.51ZM297.14,168.6c-1.79.13-4,2.53-5.76,4.73a11.65,11.65,0,0,1-7.29,4.31,53.16,53.16,0,0,0-7.16,1.61,17.31,17.31,0,0,1-4.95.8c-62.25.56-95.24-3.15-109.33-5.4l.39-3.35,139.44-3.23c0,.18,0,.35,0,.53Z"/>
        </g>
    </g>
</svg>