<?xml version="1.0" encoding="UTF-8"?> <svg xmlns="http://www.w3.org/2000/svg" id="Layer_2" data-name="Layer 2" viewBox="0 0 210.47 47.26"><defs><style>.cls-1{fill:#ff005b;}.cls-2{fill:#fff;}.cls-3{fill:#efefef;}</style></defs><title>Chao Hanoi Logo</title><path class="cls-1" d="M12.94,29.84c0-7.07,4.62-11.37,11.27-11.37a8.65,8.65,0,0,1,5.68,2A5.5,5.5,0,0,1,32,24.2a3.05,3.05,0,1,1-6.1.19,3.79,3.79,0,0,1,.74-2.13l.51-.83a2.76,2.76,0,0,0-2.35-1.25c-2.55,0-4.53,3.24-4.53,8.74,0,4.66,2.21,8.13,6.51,8.13a6.08,6.08,0,0,0,4.62-1.85l.47.51a8.87,8.87,0,0,1-8.6,5.54C16.77,41.25,12.94,36.59,12.94,29.84Z" transform="translate(-12.94 -6.74)"></path><path class="cls-1" d="M34.24,39.22l.83-.28c1.29-.5,1.48-.55,1.48-1.15V13.3c0-.79-.19-1.25-1.2-1.62L34,11.08V9.69L42.79,8h1.38a65.56,65.56,0,0,0-.37,7.07v8c1.67-3.14,3.93-4.58,7.07-4.58,4.62,0,6.75,3.51,6.75,7.81V37.79c0,.6.18.69,1.43,1.15l.83.28V40.7H48.24V39.22l.83-.28c1.34-.5,1.48-.55,1.48-1.15V26.84c0-2.08-.46-4.86-3.14-4.86a4.45,4.45,0,0,0-3.61,2.59V37.79c0,.6.28.69,1.43,1.15l.84.28V40.7H34.24Z" transform="translate(-12.94 -6.74)"></path><path class="cls-1" d="M61.31,35.57c0-4.2,4.62-5.78,8.18-6.56l3.74-.88V25.64c0-4-2-4.9-4.2-4.9a4.88,4.88,0,0,0-2.22.69l.28.74a7.12,7.12,0,0,1,.69,2.4,2.72,2.72,0,0,1-3,3c-1.75,0-2.54-1.29-2.54-2.82s1.57-3.05,2.82-3.83L66.58,20a11.42,11.42,0,0,1,5.64-1.53c4.25,0,8.27,1.8,8.27,6.66V35a13.08,13.08,0,0,0,.32,3.46,7.35,7.35,0,0,0,2.59.46V40a15.16,15.16,0,0,1-5.31,1.24A4.59,4.59,0,0,1,73.28,38a6.86,6.86,0,0,1-5.68,3.23C63.62,41.25,61.31,39.31,61.31,35.57Zm5-24.17a3.69,3.69,0,0,1-1.2-2.59,2.1,2.1,0,0,1,2.22-2.07,2.85,2.85,0,0,1,2.58,2l2.45,6.84H71.06Zm6.88,25.23V29.79l-1.1.37c-2.22.65-4.63,1.58-4.63,4.62,0,2.08,1,3.33,2.78,3.33A4,4,0,0,0,73.23,36.63Z" transform="translate(-12.94 -6.74)"></path><path class="cls-1" d="M84,29.84c0-6.28,4.16-11.37,11.74-11.37s11.69,4.67,11.69,11.32c0,6.29-4.11,11.46-11.69,11.46S84,36.59,84,29.84Zm15.62-.09c0-6.24-1.3-9.43-3.88-9.43-2.08,0-3.88,2.36-3.88,9.47,0,6.1,1.24,9.71,3.88,9.71C97.77,39.5,99.62,36.86,99.62,29.75Z" transform="translate(-12.94 -6.74)"></path><path class="cls-2" d="M109,39.22l.83-.28c1.3-.5,1.48-.55,1.48-1.15V13.3c0-.79-.18-1.25-1.2-1.62l-1.34-.6V9.69L117.59,8H119a65.56,65.56,0,0,0-.37,7.07v8c1.66-3.14,3.93-4.58,7.07-4.58,4.62,0,6.75,3.51,6.75,7.81V37.79c0,.6.18.69,1.43,1.15l.83.28V40.7H123V39.22l.84-.28c1.34-.5,1.48-.55,1.48-1.15V26.84c0-2.08-.47-4.86-3.15-4.86a4.44,4.44,0,0,0-3.6,2.59V37.79c0,.6.28.69,1.43,1.15l.83.28V40.7H109Z" transform="translate(-12.94 -6.74)"></path><path class="cls-2" d="M136.12,35.57c0-4.2,4.62-5.78,8.18-6.56l3.74-.88V25.64c0-4-2-4.9-4.2-4.9a4.84,4.84,0,0,0-2.22.69l.28.74a7.12,7.12,0,0,1,.69,2.4,2.72,2.72,0,0,1-3,3c-1.75,0-2.54-1.29-2.54-2.82s1.57-3.05,2.82-3.83l1.48-.88A11.41,11.41,0,0,1,147,18.47c4.26,0,8.28,1.8,8.28,6.66V35a13.08,13.08,0,0,0,.32,3.46,7.31,7.31,0,0,0,2.59.46V40a15.21,15.21,0,0,1-5.32,1.24,4.58,4.58,0,0,1-4.8-3.23,6.86,6.86,0,0,1-5.69,3.23C138.43,41.25,136.12,39.31,136.12,35.57ZM148,36.63V29.79l-1.11.37c-2.22.65-4.62,1.58-4.62,4.62,0,2.08,1,3.33,2.77,3.33A4.06,4.06,0,0,0,148,36.63Z" transform="translate(-12.94 -6.74)"></path><path class="cls-2" d="M159.27,39.22l.83-.28c1.2-.46,1.48-.55,1.48-1.15V23.93c0-1.16-.56-1.39-1.57-2l-.7-.37V20.14l8.14-1.67h1.38v4.58c1.3-2.41,3.38-4.58,7.12-4.58,4.67,0,6.75,3.47,6.75,7.81V37.79c0,.6.18.69,1.43,1.15l.83.28V40.7H173.32V39.22l.83-.28c1.34-.5,1.48-.55,1.48-1.15V26.84c0-2.22-.37-4.86-3.15-4.86a4.52,4.52,0,0,0-3.65,2.59V37.79c0,.6.24.69,1.44,1.15l.83.28V40.7H159.27Z" transform="translate(-12.94 -6.74)"></path><path class="cls-2" d="M186.34,29.84c0-6.28,4.16-11.37,11.74-11.37s11.69,4.67,11.69,11.32c0,6.29-4.11,11.46-11.69,11.46S186.34,36.59,186.34,29.84ZM202,29.75c0-6.24-1.29-9.43-3.88-9.43-2.08,0-3.88,2.36-3.88,9.47,0,6.1,1.25,9.71,3.88,9.71C200.12,39.5,202,36.86,202,29.75Z" transform="translate(-12.94 -6.74)"></path><path class="cls-2" d="M211.57,39.22l.83-.28c1.16-.46,1.48-.55,1.48-1.15V23.93c0-1.16-.55-1.39-1.61-2l-.65-.37V20.14l8.13-1.67h1.39V37.79c0,.6.23.69,1.43,1.15l.83.28V40.7H211.57Zm2-28.56c0-1.85,1.89-3.32,4-3.32s4,1.47,4,3.32-1.76,3.28-4,3.28S213.61,12.51,213.61,10.66Z" transform="translate(-12.94 -6.74)"></path><path class="cls-3" d="M17.92,46.79H19.3l1.43,7.11H19.52l-.28-1.64H18l-.29,1.64H16.5Zm1.18,4.65-.48-3-.48,3Z" transform="translate(-12.94 -6.74)"></path><path class="cls-3" d="M24.34,51.63V49.09c0-1.45.46-2.38,2-2.38s1.92.81,1.92,2v.6H27v-.62c0-.6,0-1.08-.66-1.08s-.73.51-.73,1.16V51.9c0,.77.15,1.14.73,1.14s.66-.5.66-1.13v-.64h1.25v.57c0,1.26-.42,2.16-1.92,2.16S24.34,53,24.34,51.63Z" transform="translate(-12.94 -6.74)"></path><path class="cls-3" d="M29.52,51.67V49c0-1.44.53-2.3,2.05-2.3s2,.86,2,2.3v2.66c0,1.43-.53,2.33-2,2.33S29.52,53.11,29.52,51.67ZM32.3,52V48.71c0-.6-.09-1.05-.73-1.05s-.73.45-.73,1.05V52c0,.59.09,1.06.73,1.06S32.3,52.57,32.3,52Z" transform="translate(-12.94 -6.74)"></path><path class="cls-3" d="M35,46.79h.9l1.73,4.06V46.79h1.07V53.9h-.86l-1.74-4.25V53.9H35Z" transform="translate(-12.94 -6.74)"></path><path class="cls-3" d="M41,47.75H39.82v-1h3.54v1H42.25V53.9H41Z" transform="translate(-12.94 -6.74)"></path><path class="cls-3" d="M44.45,46.79h3v.92h-1.7v2h1.34v.91H45.74V53h1.71v.88h-3Z" transform="translate(-12.94 -6.74)"></path><path class="cls-3" d="M48.75,46.79H50.1l1,4.93,1-4.93h1.31l.13,7.11h-1L52.52,49l-1,4.94h-.78l-1-5-.09,5h-1Z" transform="translate(-12.94 -6.74)"></path><path class="cls-3" d="M55.09,46.79h2.09c1.27,0,1.81.74,1.81,2a1.69,1.69,0,0,1-1.9,1.93h-.71V53.9H55.09Zm1.79,3c.71,0,.89-.27.89-1s-.09-1.09-.89-1.09h-.5v2.12Z" transform="translate(-12.94 -6.74)"></path><path class="cls-3" d="M60,51.67V49c0-1.44.53-2.3,2.06-2.3s2,.86,2,2.3v2.66c0,1.43-.53,2.33-2,2.33S60,53.11,60,51.67Zm2.78.31V48.71c0-.6-.09-1.05-.72-1.05s-.74.45-.74,1.05V52c0,.59.09,1.06.74,1.06S62.82,52.57,62.82,52Z" transform="translate(-12.94 -6.74)"></path><path class="cls-3" d="M65.54,46.79h1.71c1.42,0,2.23.46,2.23,1.89,0,.85-.21,1.45-.88,1.72l1,3.5H68.3l-.86-3.25h-.61V53.9H65.54Zm1.7,3.05c.75,0,1-.33,1-1.09s-.2-1.07-1-1.07h-.48v2.16Z" transform="translate(-12.94 -6.74)"></path><path class="cls-3" d="M72,46.79h1.38l1.43,7.11H73.57l-.28-1.64H72.06l-.29,1.64H70.55Zm1.18,4.65-.48-3-.48,3Z" transform="translate(-12.94 -6.74)"></path><path class="cls-3" d="M75.93,46.79h1.71c1.42,0,2.23.46,2.23,1.89,0,.85-.21,1.45-.88,1.72l1,3.5H78.69l-.86-3.25h-.61V53.9H75.93Zm1.7,3.05c.75,0,1-.33,1-1.09s-.2-1.07-1-1.07h-.48v2.16Z" transform="translate(-12.94 -6.74)"></path><path class="cls-3" d="M82.2,51.19l-1.44-4.4H82l.88,2.82.82-2.82h1.19l-1.42,4.4V53.9H82.2Z" transform="translate(-12.94 -6.74)"></path><path class="cls-3" d="M88.38,51.56V49.17c0-1.53.47-2.46,2-2.46s2,.76,2,2.08v.36H91.14v-.4c0-.68-.07-1.09-.71-1.09s-.74.55-.74,1.2v3c0,.74.14,1.2.77,1.2s.78-.49.78-1.26v-.67h-.76V50.3h1.93v3.6h-.84l-.09-.69a1.19,1.19,0,0,1-1.2.79C88.87,54,88.38,53.06,88.38,51.56Z" transform="translate(-12.94 -6.74)"></path><path class="cls-3" d="M93.79,51.6V46.79h1.27v5c0,.68.08,1.28.73,1.28s.75-.6.75-1.28v-5H97.8V51.6c0,1.5-.42,2.4-2,2.4S93.79,53.1,93.79,51.6Z" transform="translate(-12.94 -6.74)"></path><path class="cls-3" d="M99.29,46.79h1.28V53.9H99.29Z" transform="translate(-12.94 -6.74)"></path><path class="cls-3" d="M102.11,46.79h1.68c1.73,0,2.25.7,2.25,2.22v2.58c0,1.57-.53,2.31-2.2,2.31h-1.73ZM103.8,53c.89,0,.93-.47.93-1.36V48.92c0-.85-.09-1.21-.94-1.21h-.39V53Z" transform="translate(-12.94 -6.74)"></path><path class="cls-3" d="M107.44,46.79h3v.92h-1.7v2h1.34v.91h-1.34V53h1.71v.88h-3Z" transform="translate(-12.94 -6.74)"></path><path class="cls-3" d="M114.92,47.75h-1.13v-1h3.54v1h-1.11V53.9h-1.3Z" transform="translate(-12.94 -6.74)"></path><path class="cls-3" d="M118.27,51.67V49c0-1.44.53-2.3,2.06-2.3s2,.86,2,2.3v2.66c0,1.43-.53,2.33-2,2.33S118.27,53.11,118.27,51.67Zm2.78.31V48.71c0-.6-.09-1.05-.72-1.05s-.74.45-.74,1.05V52c0,.59.09,1.06.74,1.06S121.05,52.57,121.05,52Z" transform="translate(-12.94 -6.74)"></path><path class="cls-3" d="M127.05,47.75h-1.13v-1h3.54v1h-1.11V53.9h-1.3Z" transform="translate(-12.94 -6.74)"></path><path class="cls-3" d="M130.57,46.79h1.29v3h1.45v-3h1.29V53.9h-1.29V50.69h-1.45V53.9h-1.29Z" transform="translate(-12.94 -6.74)"></path><path class="cls-3" d="M136.14,46.79h3v.92h-1.69v2h1.33v.91h-1.33V53h1.71v.88h-3Z" transform="translate(-12.94 -6.74)"></path><path class="cls-3" d="M142.57,46.79h1.14l.94,5,.89-5h1.17l-1.43,7.11H144Z" transform="translate(-12.94 -6.74)"></path><path class="cls-3" d="M147.91,46.79h1.28V53.9h-1.28Z" transform="translate(-12.94 -6.74)"></path><path class="cls-3" d="M150.73,46.79h3v.92H152v2h1.34v.91H152V53h1.71v.88h-3Z" transform="translate(-12.94 -6.74)"></path><path class="cls-3" d="M155.64,47.75h-1.13v-1h3.54v1h-1.11V53.9h-1.3Z" transform="translate(-12.94 -6.74)"></path><path class="cls-3" d="M159.14,46.79h.9l1.73,4.06V46.79h1.07V53.9H162l-1.74-4.25V53.9h-1.1Z" transform="translate(-12.94 -6.74)"></path><path class="cls-3" d="M165.43,46.79h1.38l1.42,7.11H167l-.28-1.64h-1.24l-.29,1.64H164Zm1.18,4.65-.48-3-.49,3Z" transform="translate(-12.94 -6.74)"></path><path class="cls-3" d="M169.49,46.79h1.35l1,4.93,1-4.93h1.31l.13,7.11h-1l-.1-4.94-1,4.94h-.78l-1-5-.1,5h-1Z" transform="translate(-12.94 -6.74)"></path><path class="cls-3" d="M175.82,46.79h3v.92h-1.69v2h1.33v.91h-1.33V53h1.71v.88h-3Z" transform="translate(-12.94 -6.74)"></path><path class="cls-3" d="M179.85,51.83l1.11-.22c0,.84.24,1.39.81,1.39.41,0,.59-.28.59-.67a1.74,1.74,0,0,0-.78-1.36l-.9-.78a2.09,2.09,0,0,1-.82-1.72,1.65,1.65,0,0,1,1.83-1.76c1.34,0,1.71.9,1.78,1.93l-1.11.2c0-.67-.13-1.17-.7-1.17a.6.6,0,0,0-.59.67,1.29,1.29,0,0,0,.58,1.07l.88.78a2.63,2.63,0,0,1,1.07,2.06A1.69,1.69,0,0,1,181.81,54C180.51,54,179.9,53.25,179.85,51.83Z" transform="translate(-12.94 -6.74)"></path><path class="cls-3" d="M184.8,46.79h3v.92h-1.7v2h1.34v.91h-1.34V53h1.71v.88h-3Z" transform="translate(-12.94 -6.74)"></path><path class="cls-3" d="M191.46,51.63V49.09c0-1.45.46-2.38,2-2.38s1.92.81,1.92,2v.6h-1.25v-.62c0-.6,0-1.08-.66-1.08s-.73.51-.73,1.16V51.9c0,.77.15,1.14.73,1.14s.66-.5.66-1.13v-.64h1.25v.57c0,1.26-.42,2.16-1.92,2.16S191.46,53,191.46,51.63Z" transform="translate(-12.94 -6.74)"></path><path class="cls-3" d="M197.82,46.79h1.38l1.43,7.11h-1.21l-.28-1.64H197.9l-.29,1.64h-1.22ZM199,51.44l-.48-3-.48,3Z" transform="translate(-12.94 -6.74)"></path><path class="cls-3" d="M201.78,46.79h2.09c1.27,0,1.81.74,1.81,2a1.69,1.69,0,0,1-1.9,1.93h-.71V53.9h-1.29Zm1.79,3c.71,0,.89-.27.89-1s-.09-1.09-.89-1.09h-.5v2.12Z" transform="translate(-12.94 -6.74)"></path><path class="cls-3" d="M206.88,46.79h1.28V53.9h-1.28Z" transform="translate(-12.94 -6.74)"></path><path class="cls-3" d="M210.41,47.75h-1.13v-1h3.54v1h-1.11V53.9h-1.3Z" transform="translate(-12.94 -6.74)"></path><path class="cls-3" d="M214.79,46.79h1.39l1.42,7.11h-1.2l-.28-1.64h-1.24l-.29,1.64h-1.22ZM216,51.44l-.48-3-.49,3Z" transform="translate(-12.94 -6.74)"></path><path class="cls-3" d="M218.76,46.79h1.29V53h1.73v.88h-3Z" transform="translate(-12.94 -6.74)"></path></svg> 