<svg width="542" height="91" viewBox="0 0 542 91" fill="none" xmlns="http://www.w3.org/2000/svg">
<path d="M41.99 51.18C41.99 56.88 39.92 61.44 35.78 64.86C31.7 68.22 25.88 69.9 18.32 69.9C11.54 69.9 5.48 68.61 0.14 66.03V53.34C3.2 54.66 6.35 55.89 9.59 57.03C12.89 58.11 16.16 58.65 19.4 58.65C22.76 58.65 25.13 58.02 26.51 56.76C27.95 55.44 28.67 53.79 28.67 51.81C28.67 50.19 28.1 48.81 26.96 47.67C25.88 46.53 24.41 45.48 22.55 44.52C20.69 43.5 18.56 42.42 16.16 41.28C14.66 40.56 13.04 39.72 11.3 38.76C9.56 37.74 7.88 36.51 6.26 35.07C4.7 33.57 3.41 31.77 2.39 29.67C1.37 27.57 0.86 25.05 0.86 22.11C0.86 16.35 2.81 11.88 6.71 8.7C10.61 5.46 15.92 3.84 22.64 3.84C26 3.84 29.18 4.23 32.18 5.01C35.24 5.79 38.42 6.9 41.72 8.34L37.31 18.96C34.37 17.76 31.73 16.83 29.39 16.17C27.05 15.51 24.65 15.18 22.19 15.18C19.61 15.18 17.63 15.78 16.25 16.98C14.87 18.18 14.18 19.74 14.18 21.66C14.18 23.94 15.2 25.74 17.24 27.06C19.28 28.38 22.31 30 26.33 31.92C29.63 33.48 32.42 35.1 34.7 36.78C37.04 38.46 38.84 40.44 40.1 42.72C41.36 45 41.99 47.82 41.99 51.18ZM72.8403 18.96C79.6203 18.96 84.9903 20.91 88.9503 24.81C92.9103 28.65 94.8903 34.14 94.8903 41.28V47.76H63.2103C63.3303 51.54 64.4403 54.51 66.5403 56.67C68.7003 58.83 71.6703 59.91 75.4503 59.91C78.6303 59.91 81.5103 59.61 84.0903 59.01C86.6703 58.35 89.3403 57.36 92.1003 56.04V66.39C89.7003 67.59 87.1503 68.46 84.4503 69C81.8103 69.6 78.6003 69.9 74.8203 69.9C69.9003 69.9 65.5503 69 61.7703 67.2C57.9903 65.34 55.0203 62.55 52.8603 58.83C50.7003 55.11 49.6203 50.43 49.6203 44.79C49.6203 39.03 50.5803 34.26 52.5003 30.48C54.4803 26.64 57.2103 23.76 60.6903 21.84C64.1703 19.92 68.2203 18.96 72.8403 18.96ZM72.9303 28.5C70.3503 28.5 68.1903 29.34 66.4503 31.02C64.7703 32.7 63.7803 35.31 63.4803 38.85H82.2903C82.2303 35.85 81.4503 33.39 79.9503 31.47C78.4503 29.49 76.1103 28.5 72.9303 28.5ZM119.174 69H105.764V0.599995H119.174V69ZM146.596 69H133.186V0.599995H146.596V69ZM180.858 18.96C187.638 18.96 193.008 20.91 196.968 24.81C200.928 28.65 202.908 34.14 202.908 41.28V47.76H171.228C171.348 51.54 172.458 54.51 174.558 56.67C176.718 58.83 179.688 59.91 183.468 59.91C186.648 59.91 189.528 59.61 192.108 59.01C194.688 58.35 197.358 57.36 200.118 56.04V66.39C197.718 67.59 195.168 68.46 192.468 69C189.828 69.6 186.618 69.9 182.838 69.9C177.918 69.9 173.568 69 169.788 67.2C166.008 65.34 163.038 62.55 160.878 58.83C158.718 55.11 157.638 50.43 157.638 44.79C157.638 39.03 158.598 34.26 160.518 30.48C162.498 26.64 165.228 23.76 168.708 21.84C172.188 19.92 176.238 18.96 180.858 18.96ZM180.948 28.5C178.368 28.5 176.208 29.34 174.468 31.02C172.788 32.7 171.798 35.31 171.498 38.85H190.308C190.248 35.85 189.468 33.39 187.968 31.47C186.468 29.49 184.128 28.5 180.948 28.5ZM241.232 18.96C241.892 18.96 242.672 18.99 243.572 19.05C244.472 19.11 245.192 19.2 245.732 19.32L244.742 31.92C244.322 31.8 243.692 31.71 242.852 31.65C242.072 31.53 241.382 31.47 240.782 31.47C238.502 31.47 236.312 31.89 234.212 32.73C232.112 33.51 230.402 34.8 229.082 36.6C227.822 38.4 227.192 40.86 227.192 43.98V69H213.782V19.86H223.952L225.932 28.14H226.562C228.002 25.62 229.982 23.46 232.502 21.66C235.022 19.86 237.932 18.96 241.232 18.96Z" fill="#787878"/>
<path d="M276.251 4.74C284.531 4.74 290.561 6.54 294.341 10.14C298.181 13.68 300.101 18.57 300.101 24.81C300.101 28.53 299.321 32.04 297.761 35.34C296.201 38.58 293.591 41.19 289.931 43.17C286.331 45.15 281.411 46.14 275.171 46.14H269.321V69H255.731V4.74H276.251ZM275.531 15.9H269.321V34.98H273.821C277.661 34.98 280.691 34.23 282.911 32.73C285.191 31.17 286.331 28.68 286.331 25.26C286.331 19.02 282.731 15.9 275.531 15.9ZM331.325 18.87C337.925 18.87 342.965 20.31 346.445 23.19C349.985 26.01 351.755 30.36 351.755 36.24V69H342.395L339.785 62.34H339.425C337.325 64.98 335.105 66.9 332.765 68.1C330.425 69.3 327.215 69.9 323.135 69.9C318.755 69.9 315.125 68.64 312.245 66.12C309.365 63.54 307.925 59.61 307.925 54.33C307.925 49.11 309.755 45.27 313.415 42.81C317.075 40.29 322.565 38.91 329.885 38.67L338.435 38.4V36.24C338.435 33.66 337.745 31.77 336.365 30.57C335.045 29.37 333.185 28.77 330.785 28.77C328.385 28.77 326.045 29.13 323.765 29.85C321.485 30.51 319.205 31.35 316.925 32.37L312.515 23.28C315.155 21.9 318.065 20.82 321.245 20.04C324.485 19.26 327.845 18.87 331.325 18.87ZM333.215 46.41C328.895 46.53 325.895 47.31 324.215 48.75C322.535 50.19 321.695 52.08 321.695 54.42C321.695 56.46 322.295 57.93 323.495 58.83C324.695 59.67 326.255 60.09 328.175 60.09C331.055 60.09 333.485 59.25 335.465 57.57C337.445 55.83 338.435 53.4 338.435 50.28V46.23L333.215 46.41ZM358.461 19.86H373.131L382.401 47.49C382.881 48.81 383.241 50.19 383.481 51.63C383.721 53.01 383.901 54.48 384.021 56.04H384.291C384.471 54.48 384.711 53.01 385.011 51.63C385.371 50.19 385.761 48.81 386.181 47.49L395.271 19.86H409.671L388.881 75.3C387.021 80.4 384.291 84.21 380.691 86.73C377.151 89.31 373.041 90.6 368.361 90.6C366.861 90.6 365.541 90.51 364.401 90.33C363.321 90.21 362.361 90.06 361.521 89.88V79.26C362.181 79.38 362.961 79.5 363.861 79.62C364.821 79.74 365.811 79.8 366.831 79.8C369.651 79.8 371.871 78.93 373.491 77.19C375.171 75.51 376.401 73.47 377.181 71.07L377.991 68.64L358.461 19.86ZM444.081 18.96C449.601 18.96 454.071 21.12 457.491 25.44C460.911 29.7 462.621 36 462.621 44.34C462.621 52.68 460.851 59.04 457.311 63.42C453.771 67.74 449.241 69.9 443.721 69.9C440.181 69.9 437.361 69.27 435.261 68.01C433.161 66.69 431.451 65.22 430.131 63.6H429.411C429.891 66.12 430.131 68.52 430.131 70.8V90.6H416.721V19.86H427.611L429.501 26.25H430.131C431.451 24.27 433.221 22.56 435.441 21.12C437.661 19.68 440.541 18.96 444.081 18.96ZM439.761 29.67C436.281 29.67 433.821 30.75 432.381 32.91C431.001 35.07 430.251 38.37 430.131 42.81V44.25C430.131 48.99 430.821 52.65 432.201 55.23C433.641 57.75 436.221 59.01 439.941 59.01C443.001 59.01 445.251 57.75 446.691 55.23C448.191 52.65 448.941 48.96 448.941 44.16C448.941 34.5 445.881 29.67 439.761 29.67ZM493.834 18.87C500.434 18.87 505.474 20.31 508.954 23.19C512.494 26.01 514.264 30.36 514.264 36.24V69H504.904L502.294 62.34H501.934C499.834 64.98 497.614 66.9 495.274 68.1C492.934 69.3 489.724 69.9 485.644 69.9C481.264 69.9 477.634 68.64 474.754 66.12C471.874 63.54 470.434 59.61 470.434 54.33C470.434 49.11 472.264 45.27 475.924 42.81C479.584 40.29 485.074 38.91 492.394 38.67L500.944 38.4V36.24C500.944 33.66 500.254 31.77 498.874 30.57C497.554 29.37 495.694 28.77 493.294 28.77C490.894 28.77 488.554 29.13 486.274 29.85C483.994 30.51 481.714 31.35 479.434 32.37L475.024 23.28C477.664 21.9 480.574 20.82 483.754 20.04C486.994 19.26 490.354 18.87 493.834 18.87ZM495.724 46.41C491.404 46.53 488.404 47.31 486.724 48.75C485.044 50.19 484.204 52.08 484.204 54.42C484.204 56.46 484.804 57.93 486.004 58.83C487.204 59.67 488.764 60.09 490.684 60.09C493.564 60.09 495.994 59.25 497.974 57.57C499.954 55.83 500.944 53.4 500.944 50.28V46.23L495.724 46.41ZM541.401 69H527.991V0.599995H541.401V69Z" fill="#5AB337"/>
</svg>
